name processed_emg_signals
nRows=33
nColumns=7
 
endheader
time	LGLTMED	LRF	LADDLONG	LST	LTA	LGM
2.94	0.209775694647809	0.0658688032020585	0.1526042982154932	0.4783221193996244	0.5552429050368936	0.1118556868487382
2.9410000000000003	0.2092310367543663	0.0651811523128377	0.1519963246233074	0.4833386777976844	0.5515807885101477	0.1116160222243255
2.942	0.2087015293063757	0.0645203150984315	0.1514213958904978	0.4882965727277697	0.547823959202023	0.1114265772980917
2.943	0.2081891586734287	0.0638885091238247	0.1508808200699769	0.4931932992225556	0.5439738323940838	0.1112897771486823
2.944	0.2076959697217336	0.0632879915690012	0.1503759157565769	0.4980264056161981	0.5400319206985726	0.1112080632144224
2.945	0.2072240640826629	0.0627210568201252	0.1499080107221988	0.5027934959349024	0.5359998327264947	0.111183889929696
2.946	0.2067755983167988	0.0621900339410789	0.1494784404938455	0.5074922321194724	0.5318792717122857	0.1112197213008071
2.947	0.2063527819727339	0.0616972840266499	0.1490885468751561	0.51212033606781	0.5276720340912643	0.1113180274274839
2.948	0.205957875540262	0.0612451974385265	0.148739676412459	0.5166755914851	0.5233800080251664	0.1114812809760523
2.949	0.2055931882970065	0.0608361909260855	0.1484331788067277	0.5211558455287972	0.5190051718705211	0.1117119536104397
2.95	0.2052610760481745	0.0604727046339465	0.1481704052729462	0.5255590102354133	0.5145495925847415	0.1120125123871125
2.951	0.2049639387589515	0.0601571989992976	0.1479527068487976	0.5298830637163623	0.5100154240652555	0.1123854161198268
2.952	0.2047042180797449	0.0598921515420078	0.1477814326544202	0.5341260511108585	0.505404905417518	0.112833111720046
2.953	0.2044843947642239	0.0596800535512493	0.147657928105026	0.5382860852839462	0.5007203591483534	0.1133580305183088
2.954	0.2043069859806583	0.0595234066722246	0.1475835330781261	0.5423613472584662	0.4959641892816528	0.1139625845718333
2.955	0.2041745425172148	0.059424719397296	0.1475595800366278	0.5463500863712688	0.4911388793944377	0.1146491629630575
2.956	0.2040896458821116	0.0593865034658244	0.1475873921090709	0.5502506201475107	0.4862469905720968	0.1154201280939492
2.957	0.204054905299878	0.0594112701773428	0.147668281127587	0.5540613338920104	0.481291159282539	0.1162778119805594
2.958	0.2040729546055565	0.0595015266229706	0.1478035456241336	0.5577806800032974	0.4762740951695775	0.1172245125522266
2.959	0.2041464490392547	0.0596597718400353	0.1479944687853721	0.5614071770232232	0.4711985787665201	0.1182624899597036
2.96	0.2042780619445292	0.0598884928953958	0.1482423163665563	0.5649394084418533	0.4660674591319472	0.1193939628962127
2.961	0.2044704813739462	0.0601901609031813	0.1485483345652659	0.5683760212820312	0.4608836514110666	0.1206211049350366
2.962	0.2047264066058184	0.0605672269829311	0.1489137478559369	0.5717157244907004	0.4556501343277829	0.1219460408872119
2.963	0.2050485445756551	0.0610221181641204	0.1493397567867806	0.5749572871644416	0.4503699476141171	0.1233708431825035
2.964	0.205439606225633	0.0615572332434293	0.1498275357414706	0.5780995366361763	0.4450461893846418	0.1248975282769177
2.965	0.2059023027758988	0.0621749386011448	0.1503782306681878	0.5811413564488186	0.4396820134637115	0.1265280530900192
2.966	0.2064393419215677	0.0628775639832698	0.1509929567790722	0.5840816842404414	0.4342806266727351	0.1282643114755036
2.967	0.207053423960927	0.0636673982561497	0.1516727962232338	0.5869195095644432	0.4288452860836487	0.130108130728588
2.968	0.2077472378604049	0.0645466851404717	0.1524187957367301	0.5896538716668203	0.4233792962434712	0.1320612681342158
2.969	0.2085234572631665	0.065517618931827	0.1532319642730944	0.5922838572417751	0.4178860063733436	0.1341254075603334
2.97	0.209384736447711	0.0665823402147327	0.1541132706187217	0.5948085981855599	0.412368807544028	0.136302156100669
2.971	0.2103337062429152	0.0677429315774957	0.155063640997604	0.5972272693674973	0.4068311298284903	0.1385930407717218
2.972	0.2113729699053109	0.0690014133347585	0.1560839566699181	0.5995390864357113	0.4012764394307898	0.1409995052686304
